<svg width="166" height="50" viewBox="0 0 166 50" fill="none" xmlns="http://www.w3.org/2000/svg">
<path d="M24.2926 24.1523C23.3513 22.8613 22.3562 21.799 22.3562 19.3918V11.4038C22.3562 8.00147 22.5982 4.89501 20.0969 2.55509C18.1335 0.672386 14.8657 0 12.3644 0C7.48283 0 2.023 1.82891 0.879931 7.86699C0.758901 8.49904 1.22958 8.83524 1.64646 8.94282L6.62217 9.48073C7.09284 9.45384 7.42904 8.9966 7.52317 8.53938C7.9535 6.45496 9.68828 5.44638 11.6517 5.44638C12.714 5.44638 13.9109 5.84981 14.5295 6.77771C15.2557 7.84009 15.1616 9.27901 15.1616 10.5028V11.1752C12.1761 11.4979 8.2897 11.7265 5.49255 12.9503C3.82894 13.6177 2.41117 14.7811 1.43192 16.2824C0.45267 17.7838 -0.0405579 19.5503 0.0192688 21.3417C0.0192688 26.6805 3.38123 29.3432 7.71144 29.3432C11.3693 29.3432 13.3595 28.4826 16.1836 25.6182C17.1115 26.9629 17.4073 27.6353 19.1152 29.0474C19.3069 29.1498 19.5252 29.1919 19.7412 29.1679C19.9573 29.1438 20.161 29.0549 20.3255 28.9129L24.2792 25.524C24.7095 25.1744 24.6288 24.623 24.2926 24.1523ZM15.1481 16.3929C15.1481 18.4101 15.2019 20.0642 14.2068 21.8528C13.3864 23.2917 12.082 24.1792 10.6431 24.1792C8.66624 24.1792 7.52317 22.6731 7.52317 20.4542C7.52317 16.0836 11.4365 15.2902 15.1616 15.2902L15.1481 16.3929ZM91.6261 24.1523C90.6847 22.8613 89.6896 21.799 89.6896 19.3918V11.4038C89.6896 8.00147 89.9316 4.89501 87.4303 2.55509C85.4535 0.672386 82.1857 0 79.6978 0C74.8028 0 69.343 1.82891 68.2133 7.86699C68.0789 8.49904 68.563 8.84869 68.9799 8.94282L73.9556 9.48073C74.4128 9.45384 74.7624 8.9966 74.8431 8.53938C75.2735 6.45496 77.0217 5.44638 78.9716 5.44638C80.034 5.44638 81.2309 5.84981 81.8495 6.77771C82.5756 7.84009 82.4815 9.27901 82.4815 10.5028V11.1752C79.5095 11.5114 75.6097 11.7265 72.826 12.9503C71.1587 13.6139 69.7369 14.776 68.7549 16.2779C67.7729 17.7798 67.2785 19.5483 67.3392 21.3417C67.3392 26.6805 70.7012 29.3432 75.0314 29.3432C78.6892 29.3432 80.6795 28.4826 83.5036 25.6182C84.4314 26.9629 84.7408 27.6353 86.4486 29.0474C86.6398 29.1517 86.8585 29.1948 87.075 29.1707C87.2915 29.1467 87.4953 29.0567 87.6589 28.9129V28.9263C88.6944 28.0119 90.5637 26.3981 91.6126 25.524C92.016 25.1744 91.9757 24.623 91.6261 24.1523ZM81.5267 21.8528C80.7064 23.2917 79.402 24.1792 77.963 24.1792C75.9862 24.1792 74.8431 22.6731 74.8431 20.4542C74.8431 16.0836 78.7699 15.2902 82.4815 15.2902V16.4064C82.4815 18.4101 82.5353 20.0642 81.5267 21.8528ZM150.918 28.9801H145.794C145.551 28.9667 145.322 28.8624 145.153 28.688C144.984 28.5136 144.886 28.2818 144.88 28.0388L144.866 1.68098C144.89 1.4385 145.004 1.21384 145.186 1.05182C145.368 0.889801 145.604 0.80233 145.848 0.806864H150.608C150.821 0.812682 151.025 0.888254 151.191 1.02192C151.356 1.15559 151.473 1.33993 151.523 1.5465V5.58086H151.63C153.069 1.97683 155.073 0.25551 158.623 0.25551C159.807 0.196792 160.985 0.45193 162.038 0.995094C163.092 1.53826 163.983 2.35014 164.621 3.34851C165.966 5.47327 165.966 9.01006 165.966 11.5651V28.1598C165.927 28.3936 165.805 28.6055 165.622 28.7563C165.439 28.9071 165.208 28.9866 164.971 28.9801H159.82C159.596 28.9703 159.383 28.8831 159.216 28.7336C159.049 28.584 158.94 28.3812 158.906 28.1598V13.8378C158.906 10.96 159.242 6.75082 155.705 6.75082C155.06 6.77523 154.435 6.98646 153.908 7.35886C153.38 7.73126 152.972 8.24882 152.733 8.84869C152.1 10.4322 151.82 12.1349 151.913 13.8378V28.0388C151.902 28.2944 151.792 28.5359 151.607 28.7117C151.421 28.8875 151.173 28.9838 150.918 28.9801ZM129.28 0.25551C136.905 0.25551 141.02 6.80461 141.02 15.1154C141.02 23.1572 136.475 29.5449 129.28 29.5449C121.803 29.5449 117.715 22.9958 117.715 14.8464C117.715 6.64324 121.843 0.25551 129.28 0.25551ZM129.334 5.63465C125.542 5.63465 125.299 10.7986 125.299 14.0127C125.299 17.2267 125.246 24.0986 129.28 24.0986C133.261 24.0986 133.449 18.558 133.449 15.1826C133.533 12.8268 133.275 10.4713 132.682 8.18973C132.104 6.36082 130.961 5.63465 129.32 5.63465H129.334ZM34.3651 28.9801H29.228C28.9958 28.9719 28.7743 28.8804 28.604 28.7224C28.4336 28.5644 28.3258 28.3504 28.3001 28.1195V1.76166C28.3001 1.22375 28.7573 0.820317 29.2952 0.820317H34.0827C34.5803 0.833765 34.9837 1.22375 35.024 1.69442V5.13708H35.1182C36.3554 1.80201 38.7087 0.25551 41.869 0.25551C45.083 0.25551 47.1002 1.80201 48.5391 5.13708C49.0494 3.67659 50.0112 2.41635 51.2853 1.53875C52.5594 0.661159 54.0797 0.211737 55.6262 0.25551C57.7778 0.25551 60.1312 1.14306 61.5701 3.13335C63.2107 5.35224 62.8745 8.57972 62.8745 11.4038V28.0388C62.8745 28.5632 62.4173 28.9801 61.8794 28.9801H56.7423C56.4985 28.9698 56.2678 28.8665 56.0977 28.6915C55.9277 28.5164 55.8311 28.2828 55.8279 28.0388V14.053C55.8279 12.9503 55.922 10.18 55.6799 9.13109C55.29 7.35597 54.1469 6.84495 52.6542 6.84495C51.9875 6.86706 51.3419 7.08385 50.7971 7.4686C50.2522 7.85335 49.8319 8.38922 49.5881 9.01006C49.0501 10.3548 49.1174 12.5603 49.1174 14.0664V28.0388C49.1174 28.5767 48.6736 28.9801 48.1222 28.9801H42.9852C42.7424 28.9667 42.5135 28.8624 42.3441 28.688C42.1747 28.5136 42.0771 28.2818 42.0707 28.0388V14.053C42.0707 11.1214 42.5414 6.79117 38.897 6.79117C35.2123 6.79117 35.3468 11.0138 35.3468 14.053V28.0388C35.3469 28.1659 35.3213 28.2917 35.2715 28.4086C35.2217 28.5255 35.1487 28.6311 35.057 28.7191C34.9652 28.807 34.8566 28.8755 34.7377 28.9204C34.6188 28.9652 34.4921 28.9856 34.3651 28.9801ZM95.9428 5.45982V1.69442C95.9428 1.44476 96.042 1.20532 96.2185 1.02878C96.3951 0.852248 96.6345 0.753077 96.8842 0.753077H113.788C114.326 0.753077 114.756 1.12961 114.756 1.69442V4.9219C114.756 5.45982 114.299 6.17256 113.492 7.28873L104.751 19.7818C107.979 19.7011 111.421 20.1852 114.38 21.8393C115.039 22.2158 115.214 22.7807 115.267 23.3186V27.3395C115.267 27.8774 114.662 28.5229 114.03 28.2002C111.27 26.7797 108.209 26.041 105.104 26.0457C102 26.0503 98.9412 26.7983 96.1849 28.227C95.6066 28.5363 94.988 27.9043 94.988 27.3529V23.5337C94.988 22.9286 94.988 21.8797 95.6201 20.9518L105.746 6.41462H96.9245C96.7986 6.41821 96.6733 6.39653 96.556 6.35084C96.4387 6.30514 96.3317 6.23638 96.2414 6.1486C96.1511 6.06083 96.0794 5.95583 96.0304 5.83983C95.9814 5.72383 95.9562 5.59919 95.9563 5.47327L95.9428 5.45982ZM106.943 34.5206C105.706 32.9472 98.7938 33.781 95.6739 34.1441C94.7325 34.2651 94.598 33.4448 95.4452 32.8397C100.959 28.9667 110.009 30.0828 111.045 31.3873C112.121 32.6917 110.776 41.7556 105.598 46.0858C104.805 46.7582 104.052 46.3951 104.402 45.521C105.571 42.6162 108.167 36.1075 106.943 34.5206ZM102.922 39.1064C93.2801 46.2203 79.3078 49.9991 67.272 49.9991C51.1907 50.0834 35.6572 44.1607 23.7144 33.391C22.8134 32.5841 23.6203 31.468 24.7095 32.0866C37.977 39.6732 52.9972 43.66 68.2806 43.6517C78.9716 43.6517 90.7116 41.4328 101.524 36.8471C103.151 36.1747 104.523 37.9229 102.922 39.1064Z" fill="#151515"/>
</svg>
