<svg width="137" height="46" viewBox="0 0 137 46" fill="none" xmlns="http://www.w3.org/2000/svg">
<path d="M18.355 35.2178C8.87802 35.2178 0.911438 27.5037 0.911438 18.0267C0.911438 8.54974 8.87802 0.835684 18.355 0.835684C22.7598 0.765766 27.007 2.47292 30.1381 5.5718L26.8028 8.90709C24.5283 6.7232 21.4841 5.5247 18.3312 5.5718C11.5252 5.70471 6.07739 11.26 6.07739 18.0672C6.07739 24.8745 11.5252 30.4298 18.3312 30.5627C22.8195 30.5627 25.3734 28.7616 27.0125 27.1225C28.3561 25.7789 29.2328 23.854 29.5711 21.2095H18.4027V16.483H34.1643C34.3427 17.4509 34.4273 18.4338 34.4168 19.418C34.4168 22.9391 33.4639 27.2988 30.3478 30.4054C27.3317 33.5406 23.4723 35.2178 18.355 35.2178Z" fill="#151515"/>
<path d="M58.0688 24.1445C58.0727 28.626 55.3761 32.6683 51.2368 34.386C47.0976 36.1036 42.3312 35.1582 39.161 31.9907C35.9907 28.8232 35.0412 24.0576 36.7553 19.9169C38.4694 15.7762 42.5094 13.0761 46.9909 13.0761C49.9402 13.0334 52.7813 14.1854 54.8679 16.2702C56.9545 18.355 58.109 21.1952 58.0688 24.1445ZM53.2183 24.1445C53.2183 20.1612 50.3357 17.4358 46.9909 17.4358C43.6461 17.4358 40.7634 20.1612 40.7634 24.1445C40.7634 28.1278 43.6461 30.8532 46.9909 30.8532C50.3357 30.8532 53.2183 28.0897 53.2183 24.1445Z" fill="#151515"/>
<path d="M82.4021 24.1444C82.4195 28.6424 79.7233 32.7071 75.5727 34.4404C71.4221 36.1738 66.636 35.2337 63.4493 32.0593C60.2626 28.8849 59.304 24.1024 61.0213 19.9452C62.7386 15.7879 66.7928 13.0761 71.2908 13.076C74.2427 13.0348 77.0864 14.1863 79.1779 16.2697C81.2695 18.3532 82.4319 21.1924 82.4021 24.1444ZM77.5374 24.1444C77.5374 20.1611 74.6452 17.4357 71.2908 17.4357C67.9365 17.4357 65.0443 20.1611 65.0443 24.1444C65.0443 28.1277 67.9365 30.8531 71.2908 30.8531C74.6452 30.8531 77.5374 28.0896 77.5374 24.1444Z" fill="#151515"/>
<path d="M105.597 13.7479V33.6357C105.597 41.812 100.775 45.1663 95.0718 45.1663C90.7744 45.1875 86.8937 42.5998 85.2613 38.6244L89.4971 36.8614C90.25 38.6625 92.0987 40.8019 95.0718 40.8019C98.7216 40.8019 100.985 38.5386 100.985 34.3028V32.6828H100.818C99.3398 34.3371 97.2086 35.2572 94.9908 35.1986C89.4543 35.1986 84.3941 30.3767 84.3941 24.173C84.3941 17.9694 89.4543 13.0618 94.9908 13.0618C97.1979 13.0076 99.3213 13.907 100.818 15.5299H100.985V13.7479H105.597ZM101.309 24.1873C101.309 20.2898 98.7073 17.4358 95.3958 17.4358C92.0844 17.4358 89.2303 20.2946 89.2303 24.1873C89.2303 28.0801 92.0415 30.8579 95.3958 30.8579C98.7502 30.8579 101.318 28.0467 101.318 24.1873H101.309Z" fill="#151515"/>
<path d="M113.415 2.14587V34.5458H108.579V2.14587H113.415Z" fill="#151515"/>
<path d="M132.031 27.7942L135.805 30.31C133.751 33.3935 130.285 35.2377 126.58 35.2176C120.291 35.2176 115.593 30.3529 115.593 24.1492C115.593 17.5644 120.329 13.0808 126.032 13.0808C131.736 13.0808 134.609 17.6502 135.509 20.123L136.014 21.3809L121.215 27.5036C122.349 29.7239 124.107 30.8389 126.58 30.8389C129.053 30.8389 130.778 29.6382 132.031 27.7942ZM120.415 23.8109L130.311 19.7037C129.768 18.322 128.129 17.3547 126.204 17.3547C124.576 17.4294 123.046 18.1555 121.959 19.3698C120.872 20.5841 120.319 22.1845 120.424 23.8109H120.415Z" fill="#151515"/>
</svg>
