<svg width="17" height="11" viewBox="0 0 17 11" fill="none" xmlns="http://www.w3.org/2000/svg">
<path fill-rule="evenodd" clip-rule="evenodd" d="M16.618 5.76608C16.7118 5.66939 16.7645 5.53825 16.7645 5.4015C16.7645 5.26476 16.7118 5.13362 16.618 5.03692L12.3754 0.661979C12.2816 0.565286 12.1544 0.510965 12.0218 0.510965C11.8892 0.510965 11.762 0.565286 11.6683 0.661979C11.5745 0.758671 11.5218 0.889814 11.5218 1.02656C11.5218 1.1633 11.5745 1.29444 11.6683 1.39114L15.0574 4.88599L0.708112 4.88526C0.575337 4.88526 0.447999 4.93965 0.354112 5.03646C0.260226 5.13328 0.207481 5.26459 0.207481 5.4015C0.207481 5.53842 0.260226 5.66973 0.354112 5.76654C0.447999 5.86336 0.575336 5.91775 0.708112 5.91775L15.0574 5.91702L11.6683 9.41187C11.5745 9.50856 11.5218 9.63971 11.5218 9.77645C11.5218 9.91319 11.5745 10.0443 11.6683 10.141C11.762 10.2377 11.8892 10.292 12.0218 10.292C12.1544 10.292 12.2816 10.2377 12.3754 10.141L16.618 5.76608Z" fill="white"/>
</svg>
